<?xml version="1.0" standalone="no"?>
<!DOCTYPE svg PUBLIC "-//W3C//DTD SVG 20010904//EN"
 "http://www.w3.org/TR/2001/REC-SVG-20010904/DTD/svg10.dtd">
<svg version="1.0" xmlns="http://www.w3.org/2000/svg"
 width="204.000000pt" height="204.000000pt" viewBox="0 0 204.000000 204.000000"
 preserveAspectRatio="xMidYMid meet">
<metadata>
Created by potrace 1.14, written by Peter Selinger 2001-2017
</metadata>
<g transform="translate(0.000000,204.000000) scale(0.100000,-0.100000)"
fill="#000000" stroke="none">
<path d="M1025 2011 c-5 -4 -21 -7 -62 -13 -7 -1 -13 -5 -13 -10 0 -4 -3 -7
-7 -7 -15 3 -73 -23 -73 -32 0 -5 -7 -9 -15 -9 -8 0 -15 -4 -15 -10 0 -5 -5
-10 -11 -10 -6 0 -17 -7 -25 -15 -8 -8 -23 -20 -33 -27 -9 -7 -38 -40 -64 -73
-60 -76 -56 -71 -96 -132 -18 -29 -38 -53 -44 -53 -6 0 -7 -3 -4 -6 4 -4 -6
-23 -22 -43 -15 -20 -36 -51 -47 -68 -10 -18 -22 -33 -26 -33 -4 0 -8 -7 -8
-15 0 -8 -4 -15 -10 -15 -5 0 -10 -6 -10 -14 0 -8 -3 -16 -7 -18 -13 -5 -65
-78 -56 -78 4 0 3 -4 -3 -8 -5 -4 -30 -36 -55 -72 -24 -36 -46 -67 -50 -70 -3
-3 -15 -22 -28 -42 -12 -21 -27 -38 -32 -38 -6 0 -8 -4 -4 -9 3 -5 1 -12 -3
-15 -5 -3 -39 -50 -75 -104 -63 -92 -82 -132 -55 -116 18 11 157 10 162 -1 3
-5 5 -5 5 2 1 8 10 9 31 3 21 -6 30 -5 30 3 0 8 3 8 12 -1 7 -7 17 -8 28 -2 9
5 22 5 30 0 7 -4 19 -6 25 -4 7 3 18 -10 25 -28 7 -18 18 -46 26 -63 50 -112
73 -166 71 -169 -1 -1 4 -10 12 -19 7 -9 11 -24 7 -32 -3 -9 -2 -13 4 -10 9 5
15 -16 11 -38 -1 -5 3 -6 9 -2 5 3 10 2 10 -4 0 -6 12 -36 26 -67 14 -31 23
-62 20 -69 -3 -10 0 -12 12 -8 9 3 14 3 10 -1 -8 -10 47 -144 65 -157 4 -3 9
-15 10 -27 0 -11 4 -20 7 -20 19 2 30 -4 30 -15 0 -7 12 -21 27 -32 14 -11 32
-26 39 -32 7 -7 17 -13 23 -13 6 0 11 -4 11 -8 0 -4 12 -9 27 -10 15 -1 29 -6
32 -10 13 -17 160 1 197 24 11 8 24 11 27 7 4 -3 7 -1 7 6 0 7 5 9 10 6 6 -3
10 -1 10 4 0 6 7 11 15 11 8 0 15 5 15 12 0 6 2 9 5 6 5 -5 42 22 86 64 11 10
24 18 30 18 5 0 8 4 4 9 -3 5 3 16 14 23 11 8 25 26 32 41 7 15 16 27 21 27 4
0 8 6 8 14 0 8 3 16 8 18 4 2 29 36 56 76 27 39 58 81 68 92 10 11 15 20 11
20 -4 0 -1 6 8 13 9 7 18 17 20 22 2 6 8 9 12 7 5 -1 6 2 2 7 -3 6 3 19 15 31
11 11 20 23 19 26 -1 3 8 17 20 30 12 13 21 27 21 31 0 3 10 20 23 37 13 17
26 39 30 49 3 9 11 17 17 17 5 0 10 7 10 15 0 8 5 15 11 15 5 0 7 4 4 10 -3 5
-2 10 3 10 6 0 22 20 36 45 15 25 31 45 35 45 5 0 12 8 15 18 13 34 37 72 47
72 6 0 8 4 5 9 -4 5 -2 11 2 13 9 3 103 140 99 144 -1 2 -81 5 -177 8 -96 2
-176 5 -176 5 -2 1 -9 25 -19 64 -2 4 -4 10 -5 15 -1 4 -2 10 -1 15 0 4 -2 7
-7 7 -4 0 -13 15 -21 33 -13 33 -26 61 -57 132 -9 22 -18 43 -19 48 -2 4 -4
10 -5 15 -1 4 -2 10 -1 15 0 4 -4 7 -10 7 -6 0 -8 7 -5 16 3 8 2 13 -3 10 -5
-3 -12 4 -16 17 -14 42 -16 52 -17 65 -1 6 -5 12 -9 12 -8 0 -24 40 -21 53 1
4 -3 7 -10 7 -6 0 -9 3 -5 6 9 9 -60 137 -98 180 -19 21 -35 43 -35 47 0 5 -4
6 -9 3 -5 -3 -11 1 -15 9 -3 8 -12 15 -21 15 -8 0 -15 5 -15 10 0 6 -9 10 -20
10 -11 0 -20 5 -20 11 0 6 -9 9 -20 6 -11 -3 -20 -2 -20 2 0 7 -98 10 -105 2z
m-53 -742 c2 -8 5 -16 8 -19 9 -9 72 -155 73 -167 0 -7 4 -13 9 -13 4 0 8 -9
8 -21 0 -11 4 -18 8 -15 4 2 9 -7 10 -22 1 -15 7 -28 12 -30 6 -2 10 -9 10
-15 0 -15 43 -101 53 -105 13 -6 8 -24 -25 -90 -29 -60 -32 -64 -45 -46 -8 10
-12 27 -9 37 2 9 0 15 -5 11 -5 -3 -14 6 -19 20 -6 14 -15 38 -22 54 -6 15
-11 30 -10 35 1 4 -3 7 -9 7 -5 0 -8 4 -4 9 3 5 1 12 -5 16 -6 4 -8 11 -5 16
4 5 3 9 -2 9 -4 0 -14 15 -22 33 -7 17 -24 56 -37 85 -13 29 -21 58 -18 64 4
7 2 8 -4 4 -11 -6 -16 13 -9 30 1 4 -9 11 -21 15 -24 9 -25 37 -3 31 7 -1 9 3
6 9 -4 6 5 36 21 66 27 54 28 55 40 31 7 -14 14 -31 16 -39z"/>
<path d="M1036 927 c3 -10 9 -15 12 -12 3 3 0 11 -7 18 -10 9 -11 8 -5 -6z"/>
</g>
</svg>
